<svg width="172" height="223" viewBox="0 0 172 223" fill="none" xmlns="http://www.w3.org/2000/svg">
<path d="M218.643 101.498L121.372 4.20157C118.679 1.51122 115.028 0 111.222 0C107.416 0 103.765 1.51122 101.072 4.20157L80.8467 24.4119L106.474 50.0392C119.934 45.4928 132.678 58.381 128.057 71.7667L152.759 96.4688C169.786 90.5992 183.192 111.889 170.403 124.668C157.226 137.845 135.479 123.24 142.547 106.094L119.492 83.0682V143.679C132.076 149.917 130.564 164.497 124.008 171.038C120.805 174.239 116.462 176.037 111.933 176.037C107.405 176.037 103.061 174.239 99.8583 171.038C91.1185 162.283 94.3518 147.703 105.454 143.182V81.9987C95.1079 77.7656 93.2177 66.7079 96.1823 59.6146L70.9182 34.3206L4.20363 101.045C1.51206 103.737 0 107.388 0 111.195C0 115.002 1.51206 118.653 4.20363 121.345L101.505 218.641C104.197 221.331 107.847 222.842 111.652 222.842C115.458 222.842 119.108 221.331 121.8 218.641L218.643 121.798C221.335 119.105 222.847 115.455 222.847 111.648C222.847 107.841 221.335 104.19 218.643 101.498Z" fill="#D1D1F8"/>
</svg>
