<svg width="166" height="216" viewBox="0 0 166 216" fill="none" xmlns="http://www.w3.org/2000/svg">
<path d="M77.1793 0C75.6223 0 74.1733 0.333 72.8323 0.783C75.6763 2.673 77.2423 5.193 78.0163 8.037C78.0793 8.424 78.1873 8.703 78.2413 9.09C78.3081 9.42219 78.3473 9.75934 78.3583 10.098C78.5743 15.003 77.0713 15.624 76.0183 18.522C74.3983 22.257 74.8483 26.271 76.7923 29.502C76.9704 29.9353 77.1936 30.3486 77.4583 30.735C75.3433 16.623 87.1153 14.508 89.2843 10.098C89.4553 6.246 86.2783 3.681 83.7673 1.899C81.7941 0.659062 79.5098 0.00374167 77.1793 0.00900002V0ZM94.9183 3.177C94.7023 4.464 94.8643 4.131 94.8103 4.797C94.7563 5.247 94.7563 5.805 94.7023 6.246C94.5853 6.696 94.4773 7.146 94.3063 7.587C94.1983 8.037 94.0363 8.487 93.8563 8.928L93.2533 10.206C93.0733 10.431 92.9743 10.656 92.8033 10.881L92.4703 11.376C92.2048 11.7579 91.9256 12.1302 91.6333 12.492C91.3003 12.834 91.0213 13.221 90.6253 13.5V13.554C90.2923 13.833 89.9593 14.166 89.5633 14.454C88.3933 15.345 87.0613 16.011 85.8283 16.848C85.4413 17.118 85.0453 17.352 84.7123 17.685C84.3337 17.9513 83.9784 18.2494 83.6503 18.576C83.2633 18.909 82.9843 19.242 82.6513 19.638C82.3723 19.971 82.0393 20.358 81.8143 20.754C81.5342 21.1308 81.2729 21.5213 81.0313 21.924C80.8063 22.374 80.6443 22.761 80.4193 23.202C80.2483 23.652 80.0863 24.039 79.9693 24.489C79.8217 24.9486 79.6926 25.414 79.5823 25.884C79.5283 26.109 79.5283 26.388 79.4743 26.604C79.4113 26.829 79.4113 27.054 79.3573 27.279C79.3573 27.729 79.3033 28.224 79.3033 28.674C79.3033 29.007 79.3033 29.34 79.3573 29.673C79.3573 30.123 79.4113 30.573 79.5283 31.068C79.5823 31.518 79.6903 31.968 79.7983 32.418C79.9783 32.859 80.0863 33.3 80.2483 33.75C80.3653 34.02 80.5273 34.308 80.6443 34.533L67.8103 29.565C65.6413 28.953 63.5173 28.395 61.3393 27.891L57.8293 27.054C54.4813 26.388 51.0793 25.884 47.6773 25.551C47.5603 25.551 47.5063 25.497 47.3983 25.497C41.6497 24.9211 35.862 24.8459 30.1003 25.272C26.6983 25.497 23.2963 25.938 19.8943 26.496C17.3661 26.9316 14.8537 27.4539 12.3613 28.062L9.85033 28.728C9.02233 29.061 8.23033 29.448 7.45633 29.79L5.61133 30.627C5.50333 30.681 5.39533 30.681 5.34133 30.735C4.77433 31.014 4.27933 31.239 3.77533 31.518C3.05067 31.8377 2.34185 32.1921 1.65133 32.58C1.26433 32.742 0.877327 32.967 0.535328 33.138C0.375507 33.2372 0.210247 33.3273 0.040329 33.408C-0.463669 33.696 -0.96767 33.975 -1.41767 34.254C-1.87696 34.5079 -2.32166 34.7873 -2.74967 35.091C-3.14567 35.361 -3.53267 35.586 -3.86567 35.865C-3.91967 35.928 -3.98267 35.928 -4.03667 35.982C-4.36967 36.207 -4.75667 36.486 -5.09867 36.765L-5.20667 36.873L-6.04367 37.539C-6.15167 37.602 -6.26867 37.71 -6.37667 37.764C-6.65567 37.989 -6.93467 38.268 -7.21367 38.484C-7.26767 38.601 -7.38467 38.664 -7.43867 38.709C-7.77167 39.051 -8.10467 39.33 -8.43767 39.663C-8.50067 39.663 -8.50067 39.717 -8.55467 39.771C-8.90152 40.0742 -9.23484 40.3925 -9.55367 40.725C-9.61667 40.779 -9.61667 40.833 -9.67067 40.833C-9.96361 41.1197 -10.2429 41.4201 -10.5077 41.733C-10.6157 41.841 -10.7777 41.949 -10.8947 42.057C-11.1936 42.4106 -11.5121 42.7471 -11.8487 43.065C-11.9027 43.173 -12.0107 43.236 -12.0647 43.335C-12.5147 43.785 -12.9017 44.235 -13.3517 44.685L-13.5137 44.847C-14.4137 45.801 -15.3587 46.746 -16.3667 47.583C-17.3657 48.483 -18.4277 49.311 -19.4897 50.04C-21.622 51.5631 -23.9233 52.8345 -26.3477 53.829C-27.5177 54.333 -28.7507 54.783 -29.9747 55.17C-32.3147 55.674 -34.7177 56.619 -36.7787 56.79C-37.2287 56.79 -37.7237 56.898 -38.1737 56.952L-39.5687 57.285L-40.9097 57.789C-41.3597 57.96 -41.8007 58.185 -42.2417 58.401C-42.6377 58.68 -43.0787 58.905 -43.4747 59.184C-43.8718 59.4714 -44.245 59.7905 -44.5907 60.138C-44.9777 60.408 -45.3737 60.804 -45.7067 61.137C-46.0397 61.524 -46.3727 61.857 -46.6517 62.253C-46.9307 62.703 -47.2637 63.09 -47.4887 63.54C-47.7818 63.9454 -48.0436 64.3727 -48.2717 64.818C-48.4967 65.322 -48.7217 65.772 -48.8837 66.267C-49.0547 66.717 -49.2167 67.221 -49.3877 67.716C-49.4957 68.166 -49.6127 68.616 -49.6577 69.066C-49.6577 69.111 -49.7207 69.174 -49.7207 69.228C-49.8287 69.732 -49.8287 70.398 -49.8917 70.731C-49.9457 71.127 -49.9997 71.451 -49.9997 71.847C-50.01 72.8176 -49.7813 73.7758 -49.3337 74.637V74.691C-49.1627 75.024 -48.9377 75.366 -48.7127 75.699C-48.4967 76.032 -48.2627 76.365 -47.9927 76.698C-47.7137 76.977 -47.3807 77.319 -47.0387 77.598C-46.7135 77.9242 -46.3612 78.2223 -45.9857 78.489C-44.6447 79.659 -44.3117 80.046 -42.5837 80.937C-42.3047 81.108 -42.0257 81.216 -41.6837 81.387C-41.6297 81.387 -41.5757 81.441 -41.5217 81.441C-41.5217 81.558 -41.5217 81.612 -41.4677 81.72C-41.3374 82.6399 -41.0956 83.5405 -40.7477 84.402C-40.5677 84.735 -40.4597 85.068 -40.2977 85.401C-40.2347 85.518 -40.1807 85.626 -40.1177 85.68C-39.9017 86.13 -39.6767 86.517 -39.4607 86.913L-38.6237 88.083C-38.3447 88.416 -38.0027 88.803 -37.6697 89.145C-37.3367 89.478 -37.0037 89.757 -36.6077 90.09C-36.6077 90.09 -36.5537 90.144 -36.4997 90.144C-36.1667 90.423 -35.8337 90.702 -35.4917 90.927C-35.1036 91.1993 -34.6942 91.4401 -34.2677 91.647C-33.8807 91.872 -33.4307 92.097 -32.9897 92.268C-32.63 92.4302 -32.2565 92.5598 -31.8737 92.655C-31.8107 92.709 -31.7567 92.709 -31.6487 92.763C-31.4237 92.826 -31.1447 92.88 -30.9287 92.934C-31.0907 95.949 -31.1447 98.784 -30.6947 99.792C-30.1997 100.908 -27.7427 97.506 -25.2947 93.6C-25.6187 97.452 -25.8437 101.97 -25.2947 103.311C-24.6737 104.706 -21.3347 100.35 -18.4277 95.553C21.1273 86.409 57.2173 113.733 61.0063 152.343C60.2863 146.313 52.8613 142.974 49.4593 143.811C47.7853 147.933 44.9413 153.234 40.3693 156.528C40.7563 152.838 40.5943 149.058 39.8113 145.368C38.562 150.504 36.1993 155.304 32.8903 159.426C27.5983 159.813 22.2973 157.248 19.5073 153.396C19.2823 153.234 19.2283 152.901 19.0573 152.676C18.8953 152.289 18.7243 151.893 18.6073 151.506C18.4454 151.132 18.3335 150.739 18.2743 150.336C18.2203 149.94 18.2203 149.553 18.2203 149.103V148.266C18.2869 147.87 18.3801 147.479 18.4993 147.096C18.6163 146.709 18.7243 146.322 18.8953 145.926C19.1113 145.539 19.2823 145.143 19.5613 144.756C20.5063 142.074 20.5063 139.896 18.7783 138.618C18.4427 138.399 18.0871 138.212 17.7163 138.06C17.5003 138.006 17.2213 137.898 16.9963 137.835L16.5463 137.673C16.1643 137.549 15.7731 137.456 15.3763 137.394C14.9962 137.283 14.6024 137.225 14.2063 137.223C13.8012 137.159 13.3923 137.123 12.9823 137.115C12.7033 137.115 12.4243 137.169 12.1453 137.169C11.7283 137.167 11.313 137.224 10.9123 137.34C10.5253 137.394 10.1383 137.448 9.74233 137.556C9.34425 137.663 8.95344 137.795 8.57233 137.952C8.18533 138.114 7.85233 138.285 7.45633 138.456C7.12333 138.618 6.79033 138.843 6.39433 139.014C-6.60167 147.492 1.15633 167.346 10.0213 173.097C6.67333 173.709 3.27133 174.429 2.32633 175.158L2.20933 175.266C4.61233 176.715 7.12333 177.948 9.74233 179.01C13.3153 180.18 17.1043 181.233 18.7783 181.683V181.737C23.4001 182.686 28.1264 183.025 32.8363 182.745C57.5503 181.017 77.8003 162.216 81.4813 137.448L81.8143 138.897C81.9853 139.905 82.2013 140.967 82.3183 142.02V142.074C82.4263 142.578 82.4803 143.082 82.5433 143.532V143.748C82.5973 144.252 82.6513 144.756 82.6513 145.206C82.7053 145.818 82.7593 146.43 82.7593 147.042V147.942C82.7593 148.212 82.8223 148.545 82.8223 148.824C82.8223 149.166 82.7593 149.499 82.7593 149.832V150.615C82.7593 151.002 82.7053 151.335 82.7053 151.731C82.7053 151.956 82.7053 152.181 82.6513 152.451C82.6513 152.847 82.5973 153.234 82.5973 153.684C82.5433 153.846 82.5433 154.017 82.5433 154.179L82.3633 155.466C82.3633 155.637 82.3633 155.799 82.3183 155.97C82.2553 156.528 82.1473 157.032 82.0933 157.59V157.698L81.7603 159.264V159.426L81.4273 160.929C81.4273 160.992 81.3643 161.109 81.3643 161.154C81.2617 161.664 81.1325 162.169 80.9773 162.666V162.828C80.8063 163.386 80.6443 163.89 80.5273 164.394C80.4733 164.448 80.4733 164.502 80.4733 164.502L79.9693 166.176C79.7533 166.734 79.5823 167.238 79.3573 167.796C79.1323 168.354 78.9703 168.912 78.7453 169.416C78.5203 169.974 78.2953 170.469 78.0793 171.036H78.0163C77.8003 171.531 77.5663 172.089 77.2963 172.593C77.2495 172.726 77.1923 172.856 77.1253 172.98C77.0713 173.034 77.0713 173.097 77.0173 173.151C73.3281 180.537 67.9583 186.955 61.3393 191.889C60.8893 192.168 60.4483 192.51 59.9983 192.843C59.8903 192.951 59.7283 193.005 59.6113 193.113C59.2124 193.408 58.8042 193.69 58.3873 193.959L58.5493 194.292H58.6123L60.9523 193.959H61.0063C62.4553 193.734 63.9043 193.455 65.3533 193.176C65.7493 193.122 66.1903 193.005 66.5863 192.897L67.3693 192.726C67.7563 192.672 68.1433 192.564 68.5393 192.51C68.8723 192.393 69.2053 192.33 69.5383 192.231C75.1183 190.881 80.5273 189.045 85.7203 186.876C76.7549 199.087 64.8312 208.818 51.0703 215.154C57.4963 214.704 63.9043 213.651 70.0963 211.86C92.5082 205.271 111.437 190.146 122.809 169.74C120.512 182.657 115.389 194.907 107.806 205.614C113.213 202.048 118.208 197.895 122.701 193.23C135.188 180.194 143.385 163.649 146.191 145.818C148.081 154.638 148.639 163.728 147.811 172.701C188.077 116.532 151.15 58.293 135.697 42.957C135.643 42.84 135.589 42.786 135.589 42.678C135.535 42.732 135.535 42.732 135.535 42.786C135.535 42.732 135.535 42.732 135.472 42.678C135.472 43.344 135.418 44.01 135.364 44.685C135.21 45.9345 135.024 47.1799 134.806 48.42C134.536 49.644 134.194 50.877 133.861 52.11C133.465 53.28 133.024 54.504 132.511 55.674C132.001 56.8295 131.446 57.9644 130.846 59.076C129.601 61.2627 128.164 63.3348 126.553 65.268C125.716 66.267 124.825 67.158 123.925 68.058C123.399 68.539 122.859 69.0042 122.305 69.453L121.027 70.569C120.031 71.3549 118.989 72.0793 117.904 72.738C116.838 73.4246 115.739 74.0584 114.61 74.637C113.44 75.195 112.27 75.699 111.1 76.203C108.717 77.1094 106.252 77.7815 103.738 78.21C102.451 78.435 101.173 78.543 99.9403 78.66C99.0506 78.7229 98.1592 78.759 97.2673 78.768C95.9986 78.7505 94.7313 78.6754 93.4693 78.543C92.1951 78.443 90.9292 78.2565 89.6803 77.985C88.4153 77.7554 87.1673 77.4397 85.9453 77.04H85.8823C87.1153 76.923 88.3393 76.815 89.5723 76.59C92.0841 76.1546 94.5491 75.4826 96.9343 74.583C98.1583 74.133 99.3283 73.575 100.444 73.017C101.614 72.459 102.676 71.847 103.792 71.181C104.854 70.461 105.907 69.732 106.915 68.949C107.923 68.166 108.868 67.329 109.759 66.438C110.704 65.601 111.541 64.656 112.378 63.702C113.215 62.703 113.998 61.695 114.718 60.696C114.835 60.525 114.952 60.3 115.06 60.138C115.618 59.238 116.176 58.347 116.68 57.456C117.91 55.2359 118.917 52.8995 119.686 50.481C120.082 49.311 120.361 48.087 120.64 46.854C120.865 45.576 121.09 44.352 121.198 43.119C121.306 41.841 121.423 40.554 121.423 39.33C121.423 38.43 121.36 37.539 121.306 36.648C121.195 35.3986 121.045 34.153 120.856 32.913C120.639 31.6556 120.363 30.4092 120.028 29.178C119.632 28.008 119.245 26.775 118.795 25.605C118.345 24.435 117.796 23.265 117.238 22.149C116.617 21.033 116.005 19.917 115.339 18.855C114.627 17.8124 113.883 16.7919 113.107 15.795C112.27 14.841 111.433 13.887 110.542 12.942C110.073 12.4632 109.59 11.998 109.093 11.547C106.573 9.594 103.963 7.758 101.335 6.084C100.975 5.8758 100.602 5.68947 100.219 5.526C98.5647 4.5129 96.7818 3.71691 94.9183 3.177Z" fill="#D1D1F8"/>
</svg>
