<svg width="216" height="216" viewBox="0 0 216 216" fill="none" xmlns="http://www.w3.org/2000/svg">
<path d="M127.179 0C125.622 0 124.173 0.333 122.832 0.783C125.676 2.673 127.242 5.193 128.016 8.037C128.079 8.424 128.187 8.703 128.241 9.09C128.308 9.42219 128.347 9.75934 128.358 10.098C128.574 15.003 127.071 15.624 126.018 18.522C124.398 22.257 124.848 26.271 126.792 29.502C126.97 29.9353 127.194 30.3486 127.458 30.735C125.343 16.623 137.115 14.508 139.284 10.098C139.455 6.246 136.278 3.681 133.767 1.899C131.794 0.659062 129.51 0.00374167 127.179 0.00900002V0ZM144.918 3.177C144.702 4.464 144.864 4.131 144.81 4.797C144.756 5.247 144.756 5.805 144.702 6.246C144.585 6.696 144.477 7.146 144.306 7.587C144.198 8.037 144.036 8.487 143.856 8.928L143.253 10.206C143.073 10.431 142.974 10.656 142.803 10.881L142.47 11.376C142.205 11.7579 141.926 12.1302 141.633 12.492C141.3 12.834 141.021 13.221 140.625 13.5V13.554C140.292 13.833 139.959 14.166 139.563 14.454C138.393 15.345 137.061 16.011 135.828 16.848C135.441 17.118 135.045 17.352 134.712 17.685C134.334 17.9513 133.978 18.2494 133.65 18.576C133.263 18.909 132.984 19.242 132.651 19.638C132.372 19.971 132.039 20.358 131.814 20.754C131.534 21.1308 131.273 21.5213 131.031 21.924C130.806 22.374 130.644 22.761 130.419 23.202C130.248 23.652 130.086 24.039 129.969 24.489C129.822 24.9486 129.693 25.414 129.582 25.884C129.528 26.109 129.528 26.388 129.474 26.604C129.411 26.829 129.411 27.054 129.357 27.279C129.357 27.729 129.303 28.224 129.303 28.674C129.303 29.007 129.303 29.34 129.357 29.673C129.357 30.123 129.411 30.573 129.528 31.068C129.582 31.518 129.69 31.968 129.798 32.418C129.978 32.859 130.086 33.3 130.248 33.75C130.365 34.02 130.527 34.308 130.644 34.533L117.81 29.565C115.641 28.953 113.517 28.395 111.339 27.891L107.829 27.054C104.481 26.388 101.079 25.884 97.6773 25.551C97.5603 25.551 97.5063 25.497 97.3983 25.497C91.6497 24.9211 85.862 24.8459 80.1003 25.272C76.6983 25.497 73.2963 25.938 69.8943 26.496C67.3661 26.9316 64.8537 27.4539 62.3613 28.062L59.8503 28.728C59.0223 29.061 58.2303 29.448 57.4563 29.79L55.6113 30.627C55.5033 30.681 55.3953 30.681 55.3413 30.735C54.7743 31.014 54.2793 31.239 53.7753 31.518C53.0507 31.8377 52.3419 32.1921 51.6513 32.58C51.2643 32.742 50.8773 32.967 50.5353 33.138C50.3755 33.2372 50.2102 33.3273 50.0403 33.408C49.5363 33.696 49.0323 33.975 48.5823 34.254C48.123 34.5079 47.6783 34.7873 47.2503 35.091C46.8543 35.361 46.4673 35.586 46.1343 35.865C46.0803 35.928 46.0173 35.928 45.9633 35.982C45.6303 36.207 45.2433 36.486 44.9013 36.765L44.7933 36.873L43.9563 37.539C43.8483 37.602 43.7313 37.71 43.6233 37.764C43.3443 37.989 43.0653 38.268 42.7863 38.484C42.7323 38.601 42.6153 38.664 42.5613 38.709C42.2283 39.051 41.8953 39.33 41.5623 39.663C41.4993 39.663 41.4993 39.717 41.4453 39.771C41.0985 40.0742 40.7652 40.3925 40.4463 40.725C40.3833 40.779 40.3833 40.833 40.3293 40.833C40.0364 41.1197 39.7571 41.4201 39.4923 41.733C39.3843 41.841 39.2223 41.949 39.1053 42.057C38.8064 42.4106 38.4879 42.7471 38.1513 43.065C38.0973 43.173 37.9893 43.236 37.9353 43.335C37.4853 43.785 37.0983 44.235 36.6483 44.685L36.4863 44.847C35.5863 45.801 34.6413 46.746 33.6333 47.583C32.6343 48.483 31.5723 49.311 30.5103 50.04C28.378 51.5631 26.0767 52.8345 23.6523 53.829C22.4823 54.333 21.2493 54.783 20.0253 55.17C17.6853 55.674 15.2823 56.619 13.2213 56.79C12.7713 56.79 12.2763 56.898 11.8263 56.952L10.4313 57.285L9.09034 57.789C8.64034 57.96 8.19934 58.185 7.75834 58.401C7.36234 58.68 6.92134 58.905 6.52534 59.184C6.12825 59.4714 5.75503 59.7905 5.40934 60.138C5.02234 60.408 4.62634 60.804 4.29334 61.137C3.96034 61.524 3.62734 61.857 3.34834 62.253C3.06934 62.703 2.73634 63.09 2.51134 63.54C2.21819 63.9454 1.95643 64.3727 1.72834 64.818C1.50334 65.322 1.27834 65.772 1.11634 66.267C0.945337 66.717 0.783336 67.221 0.612337 67.716C0.504337 68.166 0.387336 68.616 0.342337 69.066C0.342337 69.111 0.279337 69.174 0.279337 69.228C0.171337 69.732 0.171337 70.398 0.108337 70.731C0.0543366 71.127 0.000336548 71.451 0.000336548 71.847C-0.0100181 72.8176 0.218712 73.7758 0.666336 74.637V74.691C0.837336 75.024 1.06234 75.366 1.28734 75.699C1.50334 76.032 1.73734 76.365 2.00734 76.698C2.28634 76.977 2.61934 77.319 2.96134 77.598C3.28654 77.9242 3.6388 78.2223 4.01434 78.489C5.35534 79.659 5.68834 80.046 7.41634 80.937C7.69534 81.108 7.97434 81.216 8.31634 81.387C8.37034 81.387 8.42434 81.441 8.47834 81.441C8.47834 81.558 8.47834 81.612 8.53234 81.72C8.66261 82.6399 8.90439 83.5405 9.25234 84.402C9.43234 84.735 9.54034 85.068 9.70234 85.401C9.76534 85.518 9.81934 85.626 9.88234 85.68C10.0983 86.13 10.3233 86.517 10.5393 86.913L11.3763 88.083C11.6553 88.416 11.9973 88.803 12.3303 89.145C12.6633 89.478 12.9963 89.757 13.3923 90.09C13.3923 90.09 13.4463 90.144 13.5003 90.144C13.8333 90.423 14.1663 90.702 14.5083 90.927C14.8964 91.1993 15.3058 91.4401 15.7323 91.647C16.1193 91.872 16.5693 92.097 17.0103 92.268C17.37 92.4302 17.7435 92.5598 18.1263 92.655C18.1893 92.709 18.2433 92.709 18.3513 92.763C18.5763 92.826 18.8553 92.88 19.0713 92.934C18.9093 95.949 18.8553 98.784 19.3053 99.792C19.8003 100.908 22.2573 97.506 24.7053 93.6C24.3813 97.452 24.1563 101.97 24.7053 103.311C25.3263 104.706 28.6653 100.35 31.5723 95.553C71.1273 86.409 107.217 113.733 111.006 152.343C110.286 146.313 102.861 142.974 99.4593 143.811C97.7853 147.933 94.9413 153.234 90.3693 156.528C90.7563 152.838 90.5943 149.058 89.8113 145.368C88.562 150.504 86.1993 155.304 82.8903 159.426C77.5983 159.813 72.2973 157.248 69.5073 153.396C69.2823 153.234 69.2283 152.901 69.0573 152.676C68.8953 152.289 68.7243 151.893 68.6073 151.506C68.4454 151.132 68.3335 150.739 68.2743 150.336C68.2203 149.94 68.2203 149.553 68.2203 149.103V148.266C68.2869 147.87 68.3801 147.479 68.4993 147.096C68.6163 146.709 68.7243 146.322 68.8953 145.926C69.1113 145.539 69.2823 145.143 69.5613 144.756C70.5063 142.074 70.5063 139.896 68.7783 138.618C68.4427 138.399 68.0871 138.212 67.7163 138.06C67.5003 138.006 67.2213 137.898 66.9963 137.835L66.5463 137.673C66.1643 137.549 65.7731 137.456 65.3763 137.394C64.9962 137.283 64.6024 137.225 64.2063 137.223C63.8012 137.159 63.3923 137.123 62.9823 137.115C62.7033 137.115 62.4243 137.169 62.1453 137.169C61.7283 137.167 61.313 137.224 60.9123 137.34C60.5253 137.394 60.1383 137.448 59.7423 137.556C59.3442 137.663 58.9534 137.795 58.5723 137.952C58.1853 138.114 57.8523 138.285 57.4563 138.456C57.1233 138.618 56.7903 138.843 56.3943 139.014C43.3983 147.492 51.1563 167.346 60.0213 173.097C56.6733 173.709 53.2713 174.429 52.3263 175.158L52.2093 175.266C54.6123 176.715 57.1233 177.948 59.7423 179.01C63.3153 180.18 67.1043 181.233 68.7783 181.683V181.737C73.4001 182.686 78.1264 183.025 82.8363 182.745C107.55 181.017 127.8 162.216 131.481 137.448L131.814 138.897C131.985 139.905 132.201 140.967 132.318 142.02V142.074C132.426 142.578 132.48 143.082 132.543 143.532V143.748C132.597 144.252 132.651 144.756 132.651 145.206C132.705 145.818 132.759 146.43 132.759 147.042V147.942C132.759 148.212 132.822 148.545 132.822 148.824C132.822 149.166 132.759 149.499 132.759 149.832V150.615C132.759 151.002 132.705 151.335 132.705 151.731C132.705 151.956 132.705 152.181 132.651 152.451C132.651 152.847 132.597 153.234 132.597 153.684C132.543 153.846 132.543 154.017 132.543 154.179L132.363 155.466C132.363 155.637 132.363 155.799 132.318 155.97C132.255 156.528 132.147 157.032 132.093 157.59V157.698L131.76 159.264V159.426L131.427 160.929C131.427 160.992 131.364 161.109 131.364 161.154C131.262 161.664 131.133 162.169 130.977 162.666V162.828C130.806 163.386 130.644 163.89 130.527 164.394C130.473 164.448 130.473 164.502 130.473 164.502L129.969 166.176C129.753 166.734 129.582 167.238 129.357 167.796C129.132 168.354 128.97 168.912 128.745 169.416C128.52 169.974 128.295 170.469 128.079 171.036H128.016C127.8 171.531 127.566 172.089 127.296 172.593C127.249 172.726 127.192 172.856 127.125 172.98C127.071 173.034 127.071 173.097 127.017 173.151C123.328 180.537 117.958 186.955 111.339 191.889C110.889 192.168 110.448 192.51 109.998 192.843C109.89 192.951 109.728 193.005 109.611 193.113C109.212 193.408 108.804 193.69 108.387 193.959L108.549 194.292H108.612L110.952 193.959H111.006C112.455 193.734 113.904 193.455 115.353 193.176C115.749 193.122 116.19 193.005 116.586 192.897L117.369 192.726C117.756 192.672 118.143 192.564 118.539 192.51C118.872 192.393 119.205 192.33 119.538 192.231C125.118 190.881 130.527 189.045 135.72 186.876C126.755 199.087 114.831 208.818 101.07 215.154C107.496 214.704 113.904 213.651 120.096 211.86C142.508 205.271 161.437 190.146 172.809 169.74C170.512 182.657 165.389 194.907 157.806 205.614C163.213 202.048 168.208 197.895 172.701 193.23C185.188 180.194 193.385 163.649 196.191 145.818C198.081 154.638 198.639 163.728 197.811 172.701C238.077 116.532 201.15 58.293 185.697 42.957C185.643 42.84 185.589 42.786 185.589 42.678C185.535 42.732 185.535 42.732 185.535 42.786C185.535 42.732 185.535 42.732 185.472 42.678C185.472 43.344 185.418 44.01 185.364 44.685C185.21 45.9345 185.024 47.1799 184.806 48.42C184.536 49.644 184.194 50.877 183.861 52.11C183.465 53.28 183.024 54.504 182.511 55.674C182.001 56.8295 181.446 57.9644 180.846 59.076C179.601 61.2627 178.164 63.3348 176.553 65.268C175.716 66.267 174.825 67.158 173.925 68.058C173.399 68.539 172.859 69.0042 172.305 69.453L171.027 70.569C170.031 71.3549 168.989 72.0793 167.904 72.738C166.838 73.4246 165.739 74.0584 164.61 74.637C163.44 75.195 162.27 75.699 161.1 76.203C158.717 77.1094 156.252 77.7815 153.738 78.21C152.451 78.435 151.173 78.543 149.94 78.66C149.051 78.7229 148.159 78.759 147.267 78.768C145.999 78.7505 144.731 78.6754 143.469 78.543C142.195 78.443 140.929 78.2565 139.68 77.985C138.415 77.7554 137.167 77.4397 135.945 77.04H135.882C137.115 76.923 138.339 76.815 139.572 76.59C142.084 76.1546 144.549 75.4826 146.934 74.583C148.158 74.133 149.328 73.575 150.444 73.017C151.614 72.459 152.676 71.847 153.792 71.181C154.854 70.461 155.907 69.732 156.915 68.949C157.923 68.166 158.868 67.329 159.759 66.438C160.704 65.601 161.541 64.656 162.378 63.702C163.215 62.703 163.998 61.695 164.718 60.696C164.835 60.525 164.952 60.3 165.06 60.138C165.618 59.238 166.176 58.347 166.68 57.456C167.91 55.2359 168.917 52.8995 169.686 50.481C170.082 49.311 170.361 48.087 170.64 46.854C170.865 45.576 171.09 44.352 171.198 43.119C171.306 41.841 171.423 40.554 171.423 39.33C171.423 38.43 171.36 37.539 171.306 36.648C171.195 35.3986 171.045 34.153 170.856 32.913C170.639 31.6556 170.363 30.4092 170.028 29.178C169.632 28.008 169.245 26.775 168.795 25.605C168.345 24.435 167.796 23.265 167.238 22.149C166.617 21.033 166.005 19.917 165.339 18.855C164.627 17.8124 163.883 16.7919 163.107 15.795C162.27 14.841 161.433 13.887 160.542 12.942C160.073 12.4632 159.59 11.998 159.093 11.547C156.573 9.594 153.963 7.758 151.335 6.084C150.975 5.8758 150.602 5.68947 150.219 5.526C148.565 4.5129 146.782 3.71691 144.918 3.177Z" fill="#D1D1F8"/>
</svg>
