<svg width="301" height="263" viewBox="0 0 301 263" fill="none" xmlns="http://www.w3.org/2000/svg">
<path d="M245.132 85.103C241.966 84.0479 238.801 83.0514 235.636 82.1136C236.163 79.9448 236.632 77.776 237.101 75.6072C244.311 40.6721 239.563 12.5951 223.561 3.33378C208.145 -5.51723 182.999 3.68547 157.56 25.8423C155.039 28.0111 152.577 30.2971 150.233 32.5831C148.65 31.0591 147.009 29.5351 145.367 28.0697C118.697 4.38886 91.9684 -5.57584 75.9662 3.74409C60.6088 12.6537 56.0368 39.0895 62.4846 72.1488C63.1293 75.4313 63.8327 78.6552 64.6533 81.9377C60.9019 82.9928 57.2091 84.1651 53.7508 85.396C22.4499 96.24 0 113.356 0 131.058C0 149.346 23.9153 167.693 56.4471 178.83C59.0848 179.709 61.7225 180.588 64.4189 181.35C63.5396 184.867 62.7776 188.326 62.0742 191.901C55.9196 224.433 60.7261 250.224 76.0835 259.075C91.9097 268.219 118.521 258.84 144.43 236.156C146.481 234.339 148.533 232.463 150.584 230.47C153.163 232.991 155.86 235.394 158.556 237.739C183.644 259.309 208.438 268.043 223.737 259.192C239.563 250.048 244.721 222.323 238.039 188.56C237.512 185.981 236.925 183.343 236.281 180.647C238.156 180.119 239.974 179.533 241.791 178.947C275.612 167.751 300.113 149.639 300.113 131.058C300.113 113.297 277.019 96.0641 245.132 85.103ZM165.824 35.3381C187.63 16.3465 207.969 8.90229 217.231 14.2363C227.137 19.9221 230.947 42.8995 224.733 73.0867C224.323 75.0796 223.913 77.014 223.385 78.9483C210.372 76.0175 197.184 73.9073 183.937 72.735C176.317 61.8325 167.993 51.3988 158.966 41.61C161.252 39.4412 163.48 37.3896 165.824 35.3381ZM98.0058 161.479C100.995 166.579 104.043 171.679 107.267 176.661C98.123 175.665 89.0376 174.199 80.0693 172.265C82.6484 163.824 85.8723 155.09 89.6237 146.181C92.32 151.339 95.075 156.439 98.0058 161.479ZM80.2452 90.9645C88.6859 89.0888 97.6541 87.5648 106.974 86.3925C103.867 91.2576 100.819 96.24 97.9472 101.281C95.075 106.263 92.2614 111.363 89.6237 116.521C85.9309 107.787 82.8243 99.2294 80.2452 90.9645ZM96.3059 131.351C100.175 123.262 104.395 115.349 108.85 107.553C113.305 99.7569 118.111 92.1955 123.152 84.7513C131.944 84.1065 140.913 83.7548 150.057 83.7548C159.201 83.7548 168.228 84.1065 176.961 84.7513C181.944 92.1369 186.692 99.6983 191.205 107.436C195.719 115.173 199.939 123.086 203.925 131.116C199.997 139.205 195.777 147.177 191.264 155.032C186.809 162.828 182.061 170.389 177.079 177.892C168.345 178.537 159.259 178.83 150.057 178.83C140.854 178.83 131.944 178.537 123.328 178.009C118.228 170.565 113.422 162.945 108.908 155.149C104.395 147.353 100.233 139.44 96.3059 131.351ZM202.166 161.362C205.156 156.204 207.969 150.987 210.724 145.712C214.476 154.211 217.758 162.828 220.63 171.679C211.545 173.73 202.342 175.313 193.081 176.368C196.246 171.444 199.235 166.403 202.166 161.362ZM210.607 116.521C207.852 111.363 205.038 106.205 202.108 101.164C199.235 96.1814 196.246 91.2576 193.139 86.3925C202.577 87.5648 211.603 89.1475 220.044 91.0818C217.348 99.7569 214.183 108.198 210.607 116.521ZM150.174 50.5782C156.329 57.2604 162.132 64.2943 167.524 71.5627C155.918 71.0351 144.254 71.0351 132.648 71.5627C138.392 64.0012 144.312 56.9673 150.174 50.5782ZM82.1795 14.6466C92.027 8.90229 113.891 17.1085 136.927 37.5069C138.392 38.7964 139.858 40.2032 141.382 41.61C132.296 51.3988 123.914 61.8325 116.235 72.735C102.988 73.9073 89.8582 75.9589 76.8455 78.8311C76.0835 75.8416 75.4387 72.7936 74.7939 69.7456C69.284 41.3755 72.9182 19.9807 82.1795 14.6466ZM67.8186 169.158C65.3567 168.455 62.9535 167.693 60.5502 166.872C48.065 162.945 33.88 156.732 23.6222 148.584C17.702 144.481 13.7161 138.15 12.6024 131.058C12.6024 120.331 31.125 106.615 57.8539 97.2951C61.195 96.1227 64.5947 95.0677 67.9945 94.0712C71.9803 106.791 76.7868 119.276 82.3553 131.351C76.7282 143.602 71.8631 156.263 67.8186 169.158ZM136.165 226.602C126.493 235.453 115.297 242.487 103.105 247.293C96.599 250.4 89.0962 250.693 82.414 248.055C73.094 242.663 69.2254 221.971 74.5008 194.129C75.1456 190.846 75.849 187.564 76.6696 184.34C89.7996 187.153 103.047 189.088 116.47 190.084C124.207 201.045 132.706 211.537 141.792 221.385C139.916 223.202 138.04 224.961 136.165 226.602ZM150.526 212.358C144.547 205.91 138.568 198.759 132.765 191.081C138.392 191.315 144.195 191.432 150.057 191.432C156.094 191.432 162.014 191.315 167.876 191.022C162.483 198.466 156.68 205.559 150.526 212.358ZM227.137 229.943C226.609 237.094 223.092 243.776 217.465 248.29C208.145 253.682 188.274 246.648 166.821 228.243C164.359 226.133 161.897 223.847 159.377 221.502C168.345 211.596 176.61 201.104 184.113 190.084C197.536 188.97 210.9 186.919 224.089 183.929C224.675 186.333 225.202 188.736 225.671 191.081C228.543 203.742 229.012 216.93 227.137 229.943ZM237.805 166.931C236.163 167.458 234.522 167.986 232.822 168.455C228.719 155.677 223.678 143.191 217.875 131.058C223.502 119.1 228.25 106.791 232.236 94.1884C235.284 95.0677 238.215 96.0055 241.029 96.9434C268.344 106.322 287.511 120.272 287.511 130.941C287.511 142.429 267.054 157.259 237.805 166.931ZM150.057 158.138C164.887 158.138 176.903 146.122 176.903 131.292C176.903 116.462 164.887 104.446 150.057 104.446C135.227 104.446 123.211 116.462 123.211 131.292C123.211 146.122 135.227 158.138 150.057 158.138Z" fill="#D1D1F8"/>
</svg>
