<svg width="30" height="30" viewBox="0 0 30 30" fill="none" xmlns="http://www.w3.org/2000/svg">
<rect width="30" height="30" fill="#191919"/>
<path d="M26.7857 0H3.21429C1.43906 0 0 1.43906 0 3.21429V26.7857C0 28.5609 1.43906 30 3.21429 30H26.7857C28.5609 30 30 28.5609 30 26.7857V3.21429C30 1.43906 28.5609 0 26.7857 0ZM11.9275 15.4087C5.85462 11.0014 5.9165 10.9902 4.28571 9.721V8.03571C4.28571 7.1481 5.00525 6.42857 5.89286 6.42857H24.1071C24.9948 6.42857 25.7143 7.1481 25.7143 8.03571V9.721C24.0823 10.9913 24.145 11.0016 18.0725 15.4088C17.3694 15.9214 15.9704 17.1579 15 17.1428C14.0288 17.1574 12.6317 15.9222 11.9275 15.4087ZM25.7143 12.4403V21.9643C25.7143 22.8519 24.9948 23.5714 24.1071 23.5714H5.89286C5.00525 23.5714 4.28571 22.8519 4.28571 21.9643V12.4403C5.2204 13.1631 6.51757 14.1302 10.6676 17.1421C11.616 17.8346 13.2106 19.2947 14.9998 19.2856C16.8003 19.2946 18.4175 17.8097 19.3337 17.1411C23.4827 14.1301 24.7796 13.163 25.7143 12.4403Z" fill="#D2D2D2"/>
</svg>
