<svg width="38" height="38" viewBox="0 0 38 38" fill="none" xmlns="http://www.w3.org/2000/svg">
<g filter="url(#filter0_dd_49_57)">
<rect x="4" width="30" height="30" fill="#191919"/>
<path d="M30.7857 0H7.21429C5.43906 0 4 1.43906 4 3.21429V26.7857C4 28.5609 5.43906 30 7.21429 30H30.7857C32.5609 30 34 28.5609 34 26.7857V3.21429C34 1.43906 32.5609 0 30.7857 0ZM10.2946 25.7143C9.82368 25.7143 9.42029 25.388 9.31589 24.9357L8.31156 20.583C8.2586 20.3535 8.28797 20.1127 8.39455 19.9026C8.50113 19.6926 8.67813 19.5267 8.89462 19.4339L13.582 17.425C13.7822 17.3392 14.0049 17.3208 14.2165 17.3727C14.4281 17.4245 14.6171 17.5436 14.7551 17.7123L16.8308 20.2492C20.1083 18.7115 22.7435 16.04 24.2491 12.8309L21.7121 10.7552C21.5435 10.6173 21.4243 10.4282 21.3725 10.2166C21.3207 10.0051 21.3391 9.78235 21.4249 9.58212L23.4338 4.89475C23.5266 4.67826 23.6925 4.50126 23.9026 4.39469C24.1126 4.28811 24.3534 4.25873 24.5829 4.3117L28.9356 5.31603C29.157 5.36705 29.3545 5.4916 29.4959 5.66934C29.6373 5.84708 29.7143 6.06751 29.7143 6.29464C29.7143 17.0285 21.0126 25.7143 10.2946 25.7143Z" fill="#D2D2D2"/>
</g>
<defs>
<filter id="filter0_dd_49_57" x="0" y="0" width="38" height="38" filterUnits="userSpaceOnUse" color-interpolation-filters="sRGB">
<feFlood flood-opacity="0" result="BackgroundImageFix"/>
<feColorMatrix in="SourceAlpha" type="matrix" values="0 0 0 0 0 0 0 0 0 0 0 0 0 0 0 0 0 0 127 0" result="hardAlpha"/>
<feOffset dy="4"/>
<feGaussianBlur stdDeviation="2"/>
<feComposite in2="hardAlpha" operator="out"/>
<feColorMatrix type="matrix" values="0 0 0 0 0 0 0 0 0 0 0 0 0 0 0 0 0 0 0.25 0"/>
<feBlend mode="normal" in2="BackgroundImageFix" result="effect1_dropShadow_49_57"/>
<feColorMatrix in="SourceAlpha" type="matrix" values="0 0 0 0 0 0 0 0 0 0 0 0 0 0 0 0 0 0 127 0" result="hardAlpha"/>
<feOffset dy="4"/>
<feGaussianBlur stdDeviation="2"/>
<feComposite in2="hardAlpha" operator="out"/>
<feColorMatrix type="matrix" values="0 0 0 0 0 0 0 0 0 0 0 0 0 0 0 0 0 0 0.25 0"/>
<feBlend mode="normal" in2="effect1_dropShadow_49_57" result="effect2_dropShadow_49_57"/>
<feBlend mode="normal" in="SourceGraphic" in2="effect2_dropShadow_49_57" result="shape"/>
</filter>
</defs>
</svg>
